<?xml version="1.0" encoding="utf-8"?>
<!-- Generator: Adobe Illustrator 16.0.4, SVG Export Plug-In . SVG Version: 6.00 Build 0)  -->
<!DOCTYPE svg PUBLIC "-//W3C//DTD SVG 1.1//EN" "http://www.w3.org/Graphics/SVG/1.1/DTD/svg11.dtd">
<svg version="1.1" id="Layer_1" xmlns="http://www.w3.org/2000/svg" xmlns:xlink="http://www.w3.org/1999/xlink" x="0px" y="0px"
	 width="26.999px" height="26.999px" viewBox="0 0 26.999 26.999" enable-background="new 0 0 26.999 26.999" xml:space="preserve">
<g>
	<path fill="#FD521F" d="M13.5,0C6.056,0,0,6.056,0,13.5s6.056,13.5,13.5,13.5c7.443,0,13.499-6.056,13.499-13.5S20.943,0,13.5,0z
		 M13.5,25.257c-6.483,0-11.758-5.274-11.758-11.757S7.017,1.742,13.5,1.742c6.482,0,11.757,5.274,11.757,11.757
		S19.982,25.257,13.5,25.257z"/>
	<polygon fill="#FD521F" points="18.875,6.933 13.622,12.186 8.394,6.958 6.763,8.588 11.991,13.817 6.738,19.07 8.369,20.701 
		13.623,15.448 18.852,20.678 20.482,19.047 15.254,13.817 20.507,8.564 	"/>
</g>
</svg>
