<?xml version="1.0" encoding="utf-8"?>
<!-- Generator: Adobe Illustrator 16.0.4, SVG Export Plug-In . SVG Version: 6.00 Build 0)  -->
<!DOCTYPE svg PUBLIC "-//W3C//DTD SVG 1.1//EN" "http://www.w3.org/Graphics/SVG/1.1/DTD/svg11.dtd">
<svg version="1.1" id="Layer_1" xmlns="http://www.w3.org/2000/svg" xmlns:xlink="http://www.w3.org/1999/xlink" x="0px" y="0px"
	 width="87.604px" height="40.864px" viewBox="0 0 87.604 40.864" enable-background="new 0 0 87.604 40.864" xml:space="preserve">
<g id="IhJPrd_1_">
	<g>
		<path fill-rule="evenodd" clip-rule="evenodd" d="M64.585,23.807c-3.201,0-6.227-0.012-9.252,0.02
			c-0.279,0.003-0.588,0.245-0.825,0.444c-0.376,0.315-0.761,0.646-1.04,1.042c-1.37,1.938-3.225,2.539-5.529,2.261
			c-1.367-0.165-1.549-0.282-1.033-1.54c0.664-1.616,1.35-3.224,2.123-5.065c-0.865,0-1.549,0.063-2.212-0.023
			c-0.407-0.054-0.786-0.339-1.177-0.52c0.408-0.222,0.796-0.562,1.23-0.638c0.623-0.11,1.28-0.028,2.135-0.028
			c-0.76-1.805-1.441-3.414-2.115-5.026c-0.539-1.287-0.4-1.356,1.004-1.522c2.299-0.272,4.172,0.273,5.528,2.249
			c0.895,1.302,2.16,1.644,3.718,1.567c2.407-0.117,4.824-0.03,7.432-0.03c-0.133-0.544-0.215-0.959-0.337-1.361
			c-1.425-4.657-2.857-9.312-4.287-13.969c-0.423-1.38-0.258-1.499,1.143-1.638c1.696-0.166,2.723,0.391,3.642,1.918
			c2.869,4.773,5.952,9.418,8.915,14.136c0.421,0.671,0.862,0.945,1.67,0.925c2.334-0.059,4.672-0.031,7.009-0.015
			c1.759,0.014,3.292,0.631,4.525,1.894c1.008,1.032,1.002,1.972,0.002,3.011c-1.191,1.239-2.651,1.897-4.383,1.901
			c-2.378,0.004-4.756,0.031-7.133-0.015c-0.791-0.016-1.264,0.247-1.688,0.919c-3.126,4.955-6.289,9.885-9.44,14.823
			c-0.672,1.055-3.081,1.757-4.062,1.059c-0.264-0.188-0.316-0.945-0.193-1.36c1.342-4.512,2.74-9.006,4.116-13.508
			C64.245,25.143,64.384,24.558,64.585,23.807z"/>
		<path fill-rule="evenodd" clip-rule="evenodd" d="M0,20.77c0.226-4.106,1.816-6.698,4.972-8.127
			c3.102-1.404,6.125-1.029,8.75,1.175c2.648,2.224,3.665,5.111,2.696,8.484c-0.46,1.602-1.101,3.188-1.903,4.646
			c-1.656,3.013-3.457,5.946-5.235,8.89c-0.646,1.067-1.082,1.099-1.669,0.089c-2.141-3.677-4.308-7.343-6.291-11.104
			C0.576,23.409,0.306,21.744,0,20.77z M8.425,35.092c2.758-4.479,5.595-8.604,6.97-13.475c0.264-0.937,0.21-2.047,0.006-3.016
			c-0.826-3.935-4.947-6.364-8.86-5.32c-3.782,1.009-6.205,5.052-5.061,8.678C2.961,26.652,5.65,30.725,8.425,35.092z"/>
		<path fill-rule="evenodd" clip-rule="evenodd" d="M11.615,35.645c-0.245-0.308-0.418-0.526-0.689-0.867
			c1.302-0.913,2.554-1.792,3.835-2.691c0.688,0.476,0.853,0.854,0.062,1.357C13.759,34.119,12.74,34.866,11.615,35.645z"/>
		<path fill-rule="evenodd" clip-rule="evenodd" d="M31.131,25.33c-0.138-0.329-0.254-0.606-0.371-0.885
			c0.144-0.113,0.226-0.219,0.332-0.254c1.189-0.403,2.373-0.827,3.581-1.164c0.22-0.062,0.543,0.241,0.819,0.376
			c-0.167,0.222-0.288,0.564-0.506,0.645C33.735,24.503,32.461,24.896,31.131,25.33z"/>
		<path fill-rule="evenodd" clip-rule="evenodd" d="M28.883,26.152c-1.546,0.678-2.754,1.255-4.003,1.718
			c-0.285,0.105-0.715-0.183-1.079-0.29c0.005-0.146,0.01-0.29,0.015-0.435c1.327-0.568,2.643-1.169,3.995-1.666
			C28.009,25.406,28.389,25.829,28.883,26.152z"/>
		<path fill-rule="evenodd" clip-rule="evenodd" d="M42.781,21.335c-0.264,0.283-0.479,0.721-0.8,0.82
			c-1.2,0.373-2.433,0.635-3.768,0.966c-0.118-0.323-0.229-0.631-0.383-1.053c1.599-0.396,3.082-0.762,4.566-1.128
			C42.524,21.072,42.652,21.204,42.781,21.335z"/>
		<path fill-rule="evenodd" clip-rule="evenodd" d="M17.241,30.587c1.396-0.768,2.708-1.489,4.011-2.206
			c0.69,0.9,0.695,0.909-0.087,1.35c-0.885,0.498-1.775,0.986-2.671,1.461C17.768,31.575,17.761,31.563,17.241,30.587z"/>
		<path fill-rule="evenodd" clip-rule="evenodd" d="M82.868,20.567c-0.094,0.243-0.168,0.668-0.405,0.962
			c-0.153,0.19-0.556,0.275-0.823,0.237c-0.119-0.017-0.24-0.45-0.251-0.699c-0.013-0.342,0.062-0.691,0.129-1.031
			c0.071-0.368,0.175-0.73,0.265-1.096c0.334,0.288,0.694,0.552,0.986,0.877C82.878,19.941,82.828,20.208,82.868,20.567z"/>
		<path fill-rule="evenodd" clip-rule="evenodd" d="M8.342,24.83C5.78,24.8,3.783,22.752,3.81,20.184
			c0.028-2.562,2.062-4.597,4.609-4.605c2.549-0.01,4.634,2.144,4.591,4.741C12.968,22.884,10.921,24.86,8.342,24.83z"/>
	</g>
</g>
</svg>
