<?xml version="1.0" encoding="utf-8"?>
<!-- Generator: Adobe Illustrator 16.0.4, SVG Export Plug-In . SVG Version: 6.00 Build 0)  -->
<!DOCTYPE svg PUBLIC "-//W3C//DTD SVG 1.1//EN" "http://www.w3.org/Graphics/SVG/1.1/DTD/svg11.dtd">
<svg version="1.1" id="Layer_1" xmlns="http://www.w3.org/2000/svg" xmlns:xlink="http://www.w3.org/1999/xlink" x="0px" y="0px"
	 width="409.76px" height="92.948px" viewBox="0 0 409.76 92.948" enable-background="new 0 0 409.76 92.948" xml:space="preserve">
<g>
	<path fill="#FFFFFF" d="M137.016,16.735c-1.232-0.187-2.486-0.228-3.729-0.35c-3.406-0.332-6.817-0.628-10.216-1.024
		c-2.955-0.345-5.841-0.538-8.799,0.29c-8.314,2.327-16.369,5.349-24.343,8.623c-0.553,0.227-1.285,0.368-1.833,0.207
		c-6.488-1.896-12.958-3.855-19.429-5.81c-0.393-0.118-0.757-0.331-1.426-0.63c1.216-0.559,2.112-0.921,2.962-1.37
		c2.325-1.229,3.405-3.779,2.685-6.236c-0.981-3.341-4.235-4.803-7.671-3.375c-3.894,1.618-7.779,3.259-11.625,4.987
		c-1.204,0.541-2.211,0.533-3.413,0.015C41.71,8.415,33.222,4.816,24.728,1.23c-1.833-0.773-3.755-1.628-5.759-1.027
		C15.34,1.291,11.763,2.556,8.196,3.839C7.644,4.038,6.932,4.695,6.895,5.185C6.856,5.704,7.418,6.443,7.921,6.798
		c3.368,2.383,6.792,4.685,10.194,7.02c12.574,8.634,25.147,17.269,37.717,25.909c0.322,0.222,0.6,0.509,0.972,0.827
		c-0.388,0.304-0.619,0.532-0.891,0.69c-5.967,3.478-11.929,6.964-17.928,10.388c-0.539,0.307-1.357,0.379-1.978,0.246
		c-5.563-1.193-11.105-2.48-16.664-3.692c-3.795-0.828-7.579-1.794-11.42-2.297C5.067,45.515,2.216,46.07,0,48.271
		c0,0.093,0,0.186,0,0.278c0.475,0.498,0.915,1.037,1.432,1.486c5.003,4.352,10.016,8.693,15.037,13.024
		c0.813,0.701,1.47,1.345,0.851,2.573c-0.238,0.472-0.175,1.195-0.026,1.743c0.595,2.191,2.523,2.998,5.158,2.292
		c11.936-3.194,23.88-6.357,35.812-9.569c6.389-1.72,12.866-3.202,19.106-5.361c6.643-2.298,13.122-5.115,19.551-7.98
		c10.876-4.848,21.74-9.736,32.438-14.957c5.151-2.514,10.43-5.199,13.162-10.809c0-0.186,0-0.371,0-0.557
		C141.384,18.164,139.416,17.099,137.016,16.735z"/>
	<path fill="#FFFFFF" d="M94.419,53.143c-9.142,4.097-18.478,7.638-28.261,9.915c-0.578,0.135-1.2,0.682-1.523,1.208
		c-1.726,2.801-3.364,5.655-5.03,8.492c-3.285,5.594-6.567,11.189-9.854,16.783c-0.5,0.853-0.838,1.858-0.099,2.571
		c0.544,0.525,1.518,0.845,2.295,0.835c1.421-0.018,2.833-0.427,4.259-0.531c4.495-0.329,7.961-2.414,10.694-5.936
		c2.074-2.673,4.247-5.27,6.421-7.863c0.459-0.547,1.051-1.065,1.691-1.364c2.477-1.153,4.999-2.208,7.501-3.307
		c3.054-1.34,6.118-2.657,9.151-4.043c1.958-0.894,2.978-2.602,2.847-4.522c-0.125-1.841-1.488-3.365-3.539-3.975
		c-0.343-0.103-0.672-0.248-1.177-0.437c0.422-0.46,0.738-0.844,1.094-1.188c1.736-1.673,3.511-3.309,5.203-5.025
		c0.314-0.319,0.314-0.949,0.46-1.436c-0.539-0.126-1.073-0.274-1.617-0.363C94.778,52.933,94.588,53.067,94.419,53.143z"/>
	<path fill="#FFFFFF" d="M165.002,17.117h-5.059l-11.031,32.468h4.335l3.372-10.212h11.514l3.469,10.212h4.479L165.002,17.117z
		 M157.486,36.096l3.18-9.394c0.627-1.975,1.156-3.95,1.639-5.877h0.096c0.482,1.879,0.963,3.806,1.686,5.926l3.18,9.345H157.486z"
		/>
	<rect x="180.562" y="15.382" fill="#FFFFFF" width="4.239" height="34.202"/>
	<path fill="#FFFFFF" d="M191.931,59.123h4.19v-12.67h0.097c1.397,2.312,4.095,3.662,7.178,3.662
		c5.491,0,10.598-4.143,10.598-12.525c0-7.081-4.239-11.85-9.875-11.85c-3.806,0-6.552,1.686-8.285,4.527h-0.097l-0.192-3.998
		h-3.806c0.096,2.217,0.192,4.625,0.192,7.611V59.123z M196.121,36.096c0-0.578,0.145-1.204,0.289-1.733
		c0.819-3.18,3.517-5.252,6.407-5.252c4.48,0,6.937,3.999,6.937,8.672c0,5.347-2.601,9.008-7.081,9.008
		c-3.035,0-5.588-2.023-6.358-4.962c-0.097-0.53-0.193-1.108-0.193-1.733V36.096z"/>
	<path fill="#FFFFFF" d="M234.947,49.584h4.239V35.71c0-8.045-5.01-9.971-8.141-9.971c-1.59,0-3.083,0.481-4.336,1.204
		c-1.301,0.722-2.36,1.782-3.035,2.986h-0.096V15.382h-4.239v34.202h4.239V35.518c0-0.819,0.048-1.444,0.289-2.022
		c0.771-2.312,2.938-4.24,5.685-4.24c3.998,0,5.395,3.18,5.395,6.938V49.584z"/>
	<path fill="#FFFFFF" d="M262.454,35.277c0-4.672-1.734-9.537-8.864-9.537c-2.938,0-5.732,0.818-7.659,2.07l0.964,2.795
		c1.638-1.061,3.901-1.734,6.069-1.734c4.769,0,5.299,3.469,5.299,5.395v0.482c-9.008-0.049-14.019,3.035-14.019,8.671
		c0,3.372,2.409,6.696,7.13,6.696c3.324,0,5.829-1.639,7.13-3.469h0.145l0.337,2.938h3.854c-0.289-1.59-0.385-3.565-0.385-5.588
		V35.277z M258.359,41.732c0,0.434-0.097,0.916-0.241,1.35c-0.675,1.975-2.602,3.902-5.636,3.902c-2.168,0-3.999-1.301-3.999-4.047
		c0-4.528,5.251-5.348,9.876-5.251V41.732z"/>
	<polygon fill="#FFFFFF" points="269.438,49.584 273.629,49.584 273.629,34.892 285.913,34.892 285.913,31.423 273.629,31.423 
		273.629,20.633 286.925,20.633 286.925,17.117 269.438,17.117 	"/>
	<rect x="291.936" y="15.382" fill="#FFFFFF" width="4.239" height="34.202"/>
	<rect x="303.304" y="26.269" fill="#FFFFFF" width="4.239" height="23.315"/>
	<path fill="#FFFFFF" d="M305.327,22.32c1.686,0,2.745-1.156,2.697-2.602c0-1.494-1.012-2.65-2.602-2.65
		c-1.541,0-2.649,1.156-2.649,2.65C302.773,21.164,303.834,22.32,305.327,22.32z"/>
	<path fill="#FFFFFF" d="M334.47,46.212V32.676c0-2.843,0.097-4.722,0.193-6.407h-3.709l-0.193,3.517h-0.096
		c-1.012-1.927-3.228-4.046-7.274-4.046c-5.347,0-10.502,4.479-10.502,12.38c0,6.455,4.144,11.368,9.924,11.368
		c3.613,0,6.118-1.734,7.419-3.901h0.096v2.601c0,5.877-3.179,8.142-7.515,8.142c-2.891,0-5.299-0.867-6.841-1.831l-1.06,3.229
		c1.879,1.252,4.962,1.926,7.756,1.926c2.938,0,6.214-0.674,8.479-2.793C333.41,54.835,334.47,51.56,334.47,46.212z M330.279,39.662
		c0,0.723-0.097,1.541-0.337,2.264c-0.916,2.697-3.276,4.336-5.877,4.336c-4.577,0-6.889-3.807-6.889-8.383
		c0-5.395,2.89-8.815,6.937-8.815c3.083,0,5.154,2.023,5.925,4.479c0.193,0.578,0.241,1.205,0.241,1.928V39.662z"/>
	<path fill="#FFFFFF" d="M357.11,49.584h4.239V35.71c0-8.045-5.01-9.971-8.141-9.971c-1.59,0-3.083,0.481-4.336,1.204
		c-1.301,0.722-2.36,1.782-3.035,2.986h-0.096V15.382h-4.239v34.202h4.239V35.518c0-0.819,0.048-1.444,0.289-2.022
		c0.771-2.312,2.938-4.24,5.685-4.24c3.998,0,5.395,3.18,5.395,6.938V49.584z"/>
	<path fill="#FFFFFF" d="M378.788,46.308c-0.529,0.145-1.349,0.289-2.457,0.289c-2.36,0-3.179-1.637-3.179-4.527V29.497h6.069
		v-3.228h-6.069v-6.695l-4.143,1.107v5.588h-3.613v3.228h3.613v12.718c0,2.746,0.433,4.816,1.638,6.069
		c1.012,1.156,2.601,1.782,4.576,1.782c1.638,0,2.938-0.24,3.757-0.578L378.788,46.308z"/>
	<path fill="#FFFFFF" d="M391.506,36.048c-3.035-1.156-4.432-2.023-4.432-3.95c0-1.734,1.396-3.18,3.902-3.18
		c2.167,0,3.854,0.771,4.769,1.349l1.06-3.082c-1.301-0.771-3.372-1.445-5.732-1.445c-5.01,0-8.045,3.082-8.045,6.84
		c0,2.794,1.976,5.106,6.166,6.6c3.132,1.156,4.336,2.264,4.336,4.287c0,1.928-1.445,3.469-4.528,3.469
		c-2.119,0-4.335-0.867-5.588-1.686l-1.06,3.227c1.638,0.964,3.998,1.59,6.551,1.59c5.54,0,8.72-2.891,8.72-6.984
		C397.624,39.613,395.553,37.589,391.506,36.048z"/>
	<polygon fill="#FFFFFF" points="148,68.399 152.793,68.399 152.793,82.425 154.85,82.425 154.85,68.399 159.666,68.399 
		159.666,66.669 148,66.669 	"/>
	<path fill="#FFFFFF" d="M166.867,70.854c-0.771,0-1.496,0.233-2.104,0.584c-0.632,0.351-1.146,0.865-1.473,1.449h-0.047v-7.06
		h-2.058v16.598h2.058v-6.826c0-0.397,0.023-0.701,0.14-0.981c0.374-1.122,1.426-2.058,2.759-2.058c1.939,0,2.617,1.543,2.617,3.366
		v6.499h2.058v-6.732C170.817,71.789,168.387,70.854,166.867,70.854z"/>
	<path fill="#FFFFFF" d="M178.65,70.854c-3.296,0-5.306,2.688-5.306,6.101c0,3.413,2.08,5.704,5.563,5.704
		c1.8,0,3.039-0.374,3.764-0.701l-0.351-1.473c-0.771,0.327-1.66,0.584-3.133,0.584c-2.058,0-3.834-1.146-3.881-3.927h7.948
		c0.023-0.211,0.07-0.538,0.07-0.959C183.326,74.103,182.345,70.854,178.65,70.854z M175.331,75.669
		c0.164-1.426,1.075-3.343,3.156-3.343c2.314,0,2.875,2.033,2.852,3.343H175.331z"/>
	<path fill="#FFFFFF" d="M203.713,74.618c-0.491,1.963-0.936,3.717-1.263,5.446h-0.047c-0.233-1.659-0.654-3.529-1.099-5.399
		l-1.917-7.995h-2.127l-2.104,7.948c-0.538,2.033-1.029,3.903-1.286,5.47h-0.047c-0.28-1.52-0.701-3.483-1.169-5.446l-1.87-7.972
		h-2.15l3.997,15.756h2.128l2.244-8.205c0.584-2.034,0.935-3.577,1.215-5.144h0.047c0.211,1.59,0.538,3.133,1.029,5.144l1.986,8.205
		h2.128l4.465-15.756h-2.081L203.713,74.618z"/>
	<path fill="#FFFFFF" d="M213.791,70.854c-3.133,0-5.61,2.221-5.61,6.008c0,3.576,2.36,5.82,5.423,5.82
		c2.735,0,5.634-1.823,5.634-6.008C219.237,73.214,217.04,70.854,213.791,70.854z M213.697,81.139c-2.011,0-3.437-1.87-3.437-4.348
		c0-2.15,1.052-4.395,3.483-4.395c2.431,0,3.39,2.431,3.39,4.348C217.134,79.292,215.661,81.139,213.697,81.139z"/>
	<path fill="#FFFFFF" d="M223.703,73.332h-0.093l-0.07-2.221h-1.8c0.07,1.052,0.093,2.197,0.093,3.53v7.784h2.034v-6.031
		c0-0.351,0.047-0.678,0.094-0.959c0.28-1.542,1.309-2.641,2.758-2.641c0.281,0,0.491,0.022,0.701,0.069v-1.939
		c-0.187-0.047-0.351-0.07-0.584-0.07C225.457,70.854,224.218,71.812,223.703,73.332z"/>
	<rect x="229.572" y="65.828" fill="#FFFFFF" width="2.058" height="16.598"/>
	<path fill="#FFFFFF" d="M244.86,65.828h-2.057v6.756h-0.047c-0.515-0.911-1.684-1.729-3.413-1.729
		c-2.759,0-5.096,2.314-5.072,6.077c0,3.437,2.104,5.751,4.839,5.751c1.847,0,3.226-0.958,3.856-2.221h0.047l0.094,1.964h1.847
		c-0.07-0.771-0.094-1.917-0.094-2.922V65.828z M242.804,77.679c0,0.328-0.023,0.608-0.094,0.889
		c-0.374,1.543-1.637,2.455-3.016,2.455c-2.221,0-3.343-1.894-3.343-4.185c0-2.502,1.263-4.372,3.39-4.372
		c1.543,0,2.665,1.076,2.969,2.385c0.07,0.257,0.094,0.607,0.094,0.865V77.679z"/>
	<path fill="#FFFFFF" d="M248.884,66.623c-0.257,1.684-0.864,4.114-1.379,5.493l1.309-0.163c0.655-1.075,1.66-3.577,2.198-5.54
		L248.884,66.623z"/>
	<path fill="#FFFFFF" d="M255.22,75.856c-1.473-0.561-2.151-0.981-2.151-1.917c0-0.841,0.679-1.542,1.894-1.542
		c1.053,0,1.87,0.374,2.314,0.654l0.515-1.496c-0.631-0.374-1.637-0.701-2.782-0.701c-2.431,0-3.903,1.496-3.903,3.319
		c0,1.355,0.958,2.478,2.992,3.202c1.52,0.562,2.104,1.099,2.104,2.081c0,0.935-0.701,1.683-2.197,1.683
		c-1.028,0-2.104-0.421-2.712-0.818l-0.514,1.566c0.794,0.468,1.939,0.771,3.179,0.771c2.688,0,4.231-1.402,4.231-3.39
		C258.188,77.586,257.183,76.604,255.22,75.856z"/>
	<polygon fill="#FFFFFF" points="265.856,82.425 267.891,82.425 267.891,75.295 273.852,75.295 273.852,73.612 267.891,73.612 
		267.891,68.375 274.343,68.375 274.343,66.669 265.856,66.669 	"/>
	<rect x="276.775" y="65.828" fill="#FFFFFF" width="2.058" height="16.598"/>
	<path fill="#FFFFFF" d="M283.322,66.646c-0.748,0-1.286,0.561-1.286,1.286c0,0.701,0.515,1.262,1.239,1.262
		c0.818,0,1.332-0.561,1.309-1.262C284.584,67.207,284.094,66.646,283.322,66.646z"/>
	<rect x="282.293" y="71.111" fill="#FFFFFF" width="2.058" height="11.314"/>
	<path fill="#FFFFFF" d="M295.618,72.817h-0.046c-0.491-0.935-1.566-1.963-3.53-1.963c-2.595,0-5.096,2.174-5.096,6.008
		c0,3.132,2.01,5.517,4.815,5.517c1.753,0,2.969-0.842,3.6-1.894h0.047v1.263c0,2.852-1.543,3.95-3.646,3.95
		c-1.402,0-2.571-0.421-3.319-0.889l-0.515,1.566c0.912,0.608,2.408,0.936,3.764,0.936c1.426,0,3.016-0.327,4.114-1.356
		c1.099-0.981,1.613-2.571,1.613-5.166V74.22c0-1.38,0.046-2.291,0.093-3.109h-1.8L295.618,72.817z M295.385,77.61
		c0,0.351-0.047,0.748-0.164,1.099c-0.443,1.309-1.589,2.104-2.852,2.104c-2.221,0-3.343-1.847-3.343-4.067
		c0-2.618,1.402-4.278,3.366-4.278c1.496,0,2.501,0.982,2.875,2.175c0.094,0.28,0.117,0.584,0.117,0.935V77.61z"/>
	<path fill="#FFFFFF" d="M306.513,70.854c-0.771,0-1.496,0.233-2.104,0.584c-0.631,0.351-1.146,0.865-1.473,1.449h-0.047v-7.06
		h-2.058v16.598h2.058v-6.826c0-0.397,0.023-0.701,0.141-0.981c0.374-1.122,1.426-2.058,2.758-2.058c1.94,0,2.618,1.543,2.618,3.366
		v6.499h2.058v-6.732C310.464,71.789,308.032,70.854,306.513,70.854z"/>
	<path fill="#FFFFFF" d="M316.193,67.862l-2.011,0.537v2.712h-1.753v1.566h1.753v6.171c0,1.333,0.211,2.338,0.795,2.945
		c0.491,0.562,1.263,0.865,2.221,0.865c0.795,0,1.426-0.117,1.823-0.28l-0.094-1.543c-0.257,0.07-0.654,0.141-1.191,0.141
		c-1.146,0-1.543-0.795-1.543-2.197v-6.102h2.945v-1.566h-2.945V67.862z"/>
	<path fill="#FFFFFF" d="M330.384,66.552c-1.637,0-2.922,0.141-3.904,0.304v15.569h2.034v-6.312c0.468,0.116,1.028,0.14,1.636,0.14
		c1.987,0,3.74-0.584,4.816-1.729c0.794-0.818,1.215-1.94,1.215-3.366c0-1.402-0.514-2.548-1.379-3.296
		C333.867,67.02,332.394,66.552,330.384,66.552z M330.196,74.618c-0.678,0-1.238-0.047-1.683-0.164v-6.125
		c0.351-0.093,1.028-0.163,1.917-0.163c2.244,0,3.717,1.005,3.717,3.086C334.147,73.425,332.651,74.618,330.196,74.618z"/>
	<path fill="#FFFFFF" d="M346.188,75.482c0-2.268-0.842-4.628-4.301-4.628c-1.427,0-2.782,0.397-3.717,1.005l0.467,1.355
		c0.795-0.514,1.894-0.841,2.946-0.841c2.313,0,2.571,1.683,2.571,2.618v0.233c-4.372-0.023-6.803,1.473-6.803,4.208
		c0,1.636,1.169,3.249,3.46,3.249c1.612,0,2.828-0.795,3.459-1.683h0.07l0.164,1.426h1.87c-0.141-0.771-0.188-1.73-0.188-2.712
		V75.482z M344.201,78.615c0,0.21-0.046,0.444-0.116,0.654c-0.327,0.959-1.263,1.894-2.735,1.894c-1.052,0-1.94-0.631-1.94-1.964
		c0-2.197,2.548-2.595,4.792-2.548V78.615z"/>
	<path fill="#FFFFFF" d="M351.379,73.332h-0.093l-0.07-2.221h-1.8c0.07,1.052,0.093,2.197,0.093,3.53v7.784h2.034v-6.031
		c0-0.351,0.047-0.678,0.094-0.959c0.28-1.542,1.309-2.641,2.758-2.641c0.281,0,0.491,0.022,0.701,0.069v-1.939
		c-0.187-0.047-0.351-0.07-0.584-0.07C353.133,70.854,351.894,71.812,351.379,73.332z"/>
	<path fill="#FFFFFF" d="M360.193,67.862l-2.011,0.537v2.712h-1.753v1.566h1.753v6.171c0,1.333,0.211,2.338,0.795,2.945
		c0.491,0.562,1.263,0.865,2.221,0.865c0.795,0,1.426-0.117,1.823-0.28l-0.094-1.543c-0.257,0.07-0.654,0.141-1.191,0.141
		c-1.146,0-1.543-0.795-1.543-2.197v-6.102h2.945v-1.566h-2.945V67.862z"/>
	<path fill="#FFFFFF" d="M371.087,70.854c-1.87,0-3.179,1.052-3.74,2.127h-0.046l-0.117-1.87h-1.823
		c0.069,0.936,0.093,1.894,0.093,3.062v8.252h2.058v-6.803c0-0.351,0.047-0.701,0.141-0.958c0.351-1.146,1.402-2.104,2.758-2.104
		c1.94,0,2.618,1.52,2.618,3.343v6.522h2.058v-6.756C375.085,71.789,372.653,70.854,371.087,70.854z"/>
	<path fill="#FFFFFF" d="M382.918,70.854c-3.296,0-5.306,2.688-5.306,6.101c0,3.413,2.08,5.704,5.563,5.704
		c1.8,0,3.039-0.374,3.764-0.701l-0.351-1.473c-0.771,0.327-1.66,0.584-3.133,0.584c-2.058,0-3.834-1.146-3.881-3.927h7.948
		c0.023-0.211,0.07-0.538,0.07-0.959C387.594,74.103,386.612,70.854,382.918,70.854z M379.599,75.669
		c0.164-1.426,1.075-3.343,3.156-3.343c2.314,0,2.875,2.033,2.852,3.343H379.599z"/>
	<path fill="#FFFFFF" d="M392.013,73.332h-0.093l-0.07-2.221h-1.8c0.069,1.052,0.093,2.197,0.093,3.53v7.784h2.034v-6.031
		c0-0.351,0.047-0.678,0.094-0.959c0.28-1.542,1.309-2.641,2.758-2.641c0.281,0,0.491,0.022,0.702,0.069v-1.939
		c-0.188-0.047-0.352-0.07-0.585-0.07C393.767,70.854,392.527,71.812,392.013,73.332z"/>
	<polygon fill="#FFFFFF" points="397.324,69.015 399.373,69.015 399.373,75.012 400.252,75.012 400.252,69.015 402.311,69.015 
		402.311,68.276 397.324,68.276 	"/>
	<path fill="#FFFFFF" d="M409.34,68.276h-1.109l-1.199,3.258c-0.301,0.85-0.541,1.59-0.711,2.27h-0.029
		c-0.17-0.7-0.4-1.439-0.68-2.27l-1.149-3.258h-1.109l-0.47,6.736h0.83l0.18-2.889c0.06-1.009,0.109-2.139,0.13-2.979h0.021
		c0.189,0.8,0.459,1.67,0.779,2.619l1.089,3.208h0.659l1.189-3.269c0.34-0.929,0.62-1.769,0.85-2.559h0.03
		c-0.01,0.84,0.05,1.97,0.101,2.909l0.17,2.958h0.85L409.34,68.276z"/>
</g>
</svg>
