<?xml version="1.0" encoding="utf-8"?>
<!-- Generator: Adobe Illustrator 16.0.4, SVG Export Plug-In . SVG Version: 6.00 Build 0)  -->
<!DOCTYPE svg PUBLIC "-//W3C//DTD SVG 1.1//EN" "http://www.w3.org/Graphics/SVG/1.1/DTD/svg11.dtd">
<svg version="1.1" id="Layer_1" xmlns="http://www.w3.org/2000/svg" xmlns:xlink="http://www.w3.org/1999/xlink" x="0px" y="0px"
	 width="142.521px" height="92.948px" viewBox="0 0 142.521 92.948" enable-background="new 0 0 142.521 92.948"
	 xml:space="preserve">
<g id="k6AH1g.tif_1_">
	<g>
		<path fill="#FFFFFF" d="M88.057,59.683c0.396-0.43,0.691-0.79,1.024-1.112c1.627-1.566,3.291-3.101,4.875-4.709
			c0.295-0.298,0.295-0.89,0.431-1.345c-0.503-0.117-1.005-0.257-1.515-0.341c-0.148-0.023-0.326,0.103-0.483,0.175
			c-8.566,3.837-17.314,7.155-26.48,9.288c-0.542,0.127-1.124,0.639-1.427,1.133c-1.617,2.624-3.152,5.298-4.713,7.957
			c-3.078,5.241-6.153,10.484-9.233,15.725c-0.469,0.798-0.785,1.741-0.093,2.409c0.51,0.492,1.423,0.792,2.151,0.782
			c1.332-0.017,2.654-0.4,3.99-0.497c4.212-0.31,7.459-2.262,10.02-5.562c1.943-2.505,3.979-4.937,6.018-7.367
			c0.43-0.513,0.983-0.999,1.584-1.279c2.321-1.08,4.684-2.068,7.028-3.099c2.861-1.255,5.733-2.489,8.574-3.788
			c1.834-0.836,2.791-2.437,2.669-4.236c-0.118-1.726-1.395-3.152-3.316-3.724C88.838,59.997,88.531,59.861,88.057,59.683z"/>
		<path fill-rule="evenodd" clip-rule="evenodd" fill="#FFFFFF" d="M3.922,47.785c2.077-2.062,4.748-2.582,7.423-2.231
			c3.599,0.471,7.145,1.376,10.701,2.152c5.208,1.135,10.401,2.341,15.613,3.459c0.582,0.125,1.349,0.057,1.854-0.23
			c5.621-3.208,11.207-6.475,16.798-9.732c0.254-0.148,0.47-0.362,0.834-0.648c-0.348-0.298-0.608-0.567-0.91-0.774
			c-11.777-8.096-23.558-16.187-35.339-24.276c-3.187-2.187-6.396-4.345-9.551-6.577c-0.472-0.333-0.998-1.025-0.962-1.511
			c0.035-0.46,0.702-1.075,1.22-1.261c3.341-1.203,6.693-2.389,10.094-3.408c1.877-0.562,3.679,0.238,5.396,0.963
			c7.958,3.359,15.911,6.732,23.845,10.148c1.126,0.487,2.07,0.494,3.198-0.013c3.603-1.62,7.244-3.156,10.892-4.674
			c3.219-1.338,6.269,0.033,7.188,3.163c0.675,2.302-0.337,4.691-2.516,5.843c-0.796,0.421-1.636,0.761-2.775,1.285
			c0.626,0.28,0.968,0.479,1.336,0.589c6.062,1.832,12.125,3.667,18.204,5.444c0.514,0.15,1.198,0.018,1.717-0.194
			c7.471-3.069,15.018-5.9,22.809-8.08c2.771-0.776,5.475-0.595,8.244-0.273c3.185,0.372,6.381,0.65,9.572,0.961
			c1.164,0.113,2.339,0.152,3.493,0.328c2.25,0.34,4.094,1.337,5.159,3.466c0,0.174,0,0.348,0,0.522
			c-2.561,5.256-7.507,7.771-12.332,10.126c-10.025,4.892-20.203,9.473-30.394,14.014c-6.023,2.685-12.093,5.326-18.318,7.478
			c-5.847,2.023-11.915,3.412-17.901,5.023c-11.18,3.01-22.371,5.973-33.555,8.966c-2.468,0.661-4.275-0.095-4.833-2.147
			c-0.139-0.513-0.198-1.191,0.025-1.633c0.58-1.151-0.036-1.755-0.797-2.412c-4.705-4.058-9.401-8.125-14.089-12.202
			c-0.485-0.421-0.896-0.926-1.341-1.393C3.922,47.958,3.922,47.873,3.922,47.785z"/>
		<path fill-rule="evenodd" clip-rule="evenodd" fill="#FFFFFF" d="M88.057,59.683c0.474,0.178,0.781,0.313,1.104,0.41
			c1.922,0.571,3.198,1.998,3.316,3.724c0.122,1.8-0.835,3.4-2.669,4.236c-2.841,1.299-5.713,2.533-8.574,3.788
			c-2.345,1.03-4.707,2.019-7.028,3.099c-0.601,0.28-1.154,0.767-1.584,1.279c-2.038,2.431-4.074,4.862-6.018,7.367
			c-2.561,3.3-5.808,5.252-10.02,5.562c-1.336,0.097-2.658,0.48-3.99,0.497c-0.728,0.01-1.641-0.29-2.151-0.782
			c-0.692-0.668-0.376-1.611,0.093-2.409c3.08-5.24,6.155-10.483,9.233-15.725c1.561-2.659,3.096-5.333,4.713-7.957
			c0.303-0.494,0.886-1.006,1.427-1.133c9.166-2.133,17.914-5.451,26.48-9.288c0.157-0.072,0.335-0.198,0.483-0.175
			c0.51,0.084,1.012,0.224,1.515,0.341c-0.136,0.455-0.136,1.047-0.431,1.345c-1.584,1.608-3.248,3.143-4.875,4.709
			C88.749,58.893,88.453,59.253,88.057,59.683z"/>
	</g>
</g>
</svg>
